<?xml version="1.0" standalone="no"?>
<!DOCTYPE svg PUBLIC "-//W3C//DTD SVG 20010904//EN"
 "http://www.w3.org/TR/2001/REC-SVG-20010904/DTD/svg10.dtd">
<svg version="1.0" xmlns="http://www.w3.org/2000/svg"
 width="64.000000pt" height="64.000000pt" viewBox="0 0 64.000000 64.000000"
 preserveAspectRatio="xMidYMid meet">

<g transform="translate(0.000000,64.000000) scale(0.100000,-0.100000)"
fill="#000000" stroke="none">
<path d="M367 634 c-13 -13 -7 -61 8 -74 22 -19 37 0 33 41 -3 32 -24 49 -41
33z"/>
<path d="M511 564 c-11 -14 -17 -32 -14 -40 8 -22 36 -16 56 12 15 20 16 28 7
39 -17 21 -26 19 -49 -11z"/>
<path d="M220 555 c-11 -13 -9 -20 10 -40 13 -14 30 -25 37 -25 25 0 26 30 3
56 -27 28 -33 29 -50 9z"/>
<path d="M360 513 c-25 -9 -62 -46 -71 -71 -8 -20 -13 -22 -48 -16 -55 9 -92
-7 -161 -67 -68 -59 -86 -100 -70 -161 6 -20 23 -46 38 -58 122 -94 131 -98
196 -80 23 6 49 11 57 10 75 -11 121 27 149 123 10 38 16 75 13 83 -3 9 6 28
23 45 24 25 29 39 29 79 0 42 -5 54 -31 81 -31 30 -90 46 -124 32z m78 -60
c28 -24 36 -63 19 -87 -14 -19 -15 -19 -41 2 -15 11 -40 23 -55 27 -23 5 -28
10 -24 26 6 23 40 49 64 49 9 0 26 -8 37 -17z m-176 -92 c21 -10 48 -16 61
-14 16 3 34 -4 55 -22 26 -22 32 -34 32 -65 0 -21 -4 -42 -10 -45 -5 -3 -10
-17 -10 -31 0 -35 -34 -64 -74 -64 -19 0 -38 4 -41 10 -4 6 -17 1 -34 -11 -32
-24 -75 -18 -94 12 -7 11 -18 19 -25 19 -7 0 -24 11 -37 25 -32 31 -34 87 -4
113 11 9 33 29 48 44 27 26 63 46 86 47 6 1 27 -7 47 -18z"/>
<path d="M560 424 c-12 -14 -12 -18 3 -29 25 -18 72 -4 72 21 0 26 -56 32 -75
8z"/>
<path d="M513 294 c-3 -10 4 -26 21 -42 25 -25 27 -26 43 -9 17 17 17 19 -10
43 -33 28 -45 30 -54 8z"/>
</g>
</svg>
